<svg width="32" height="51" viewBox="0 0 32 51" fill="none" xmlns="http://www.w3.org/2000/svg">
<path d="M4 7.99999H29.3333L25.3333 21.3333H8L4 7.99999ZM4 7.99999L3 4.66666" stroke="#FAFAFA" stroke-width="1.5" stroke-linecap="round" stroke-linejoin="round"/>
<path d="M14.6665 26C14.6665 27.1046 13.7711 28 12.6665 28C11.5619 28 10.6665 27.1046 10.6665 26" stroke="#FAFAFA" stroke-width="1.5" stroke-linecap="round" stroke-linejoin="round"/>
<path d="M22.6665 26C22.6665 27.1046 21.7711 28 20.6665 28C19.5619 28 18.6665 27.1046 18.6665 26" stroke="#FAFAFA" stroke-width="1.5" stroke-linecap="round" stroke-linejoin="round"/>
<path d="M6.18255 48C5.16989 48 4.43022 47.7667 3.96355 47.3C3.49689 46.8333 3.26355 46.0937 3.26355 45.081V41.896C3.26355 40.874 3.49455 40.132 3.95655 39.67C4.42322 39.208 5.16055 38.977 6.16856 38.977H7.86255C8.72122 38.977 9.36056 39.1567 9.78056 39.516C10.2006 39.8707 10.4316 40.4423 10.4736 41.231C10.4876 41.357 10.4619 41.4527 10.3966 41.518C10.3359 41.5833 10.2449 41.616 10.1236 41.616C9.89022 41.616 9.76189 41.4923 9.73855 41.245C9.70589 40.6663 9.54722 40.2673 9.26256 40.048C8.97789 39.824 8.51122 39.712 7.86255 39.712H6.16856C5.63189 39.712 5.20489 39.782 4.88755 39.922C4.57022 40.0573 4.34155 40.286 4.20155 40.608C4.06622 40.9253 3.99855 41.3547 3.99855 41.896V45.081C3.99855 45.6223 4.06855 46.0517 4.20855 46.369C4.34855 46.6863 4.57722 46.915 4.89455 47.055C5.21189 47.195 5.64122 47.265 6.18255 47.265H7.86255C8.51122 47.265 8.97789 47.1553 9.26256 46.936C9.54722 46.712 9.70589 46.3107 9.73855 45.732C9.76189 45.4847 9.89022 45.361 10.1236 45.361C10.2449 45.361 10.3359 45.396 10.3966 45.466C10.4619 45.5313 10.4876 45.6247 10.4736 45.746C10.4316 46.5347 10.2006 47.1087 9.78056 47.468C9.36056 47.8227 8.72122 48 7.86255 48H6.18255ZM14.4567 48C13.7287 48 13.1943 47.832 12.8537 47.496C12.5177 47.1553 12.3497 46.621 12.3497 45.893C12.3497 45.165 12.52 44.6307 12.8607 44.29C13.2013 43.9493 13.7333 43.779 14.4567 43.779H17.6417C17.6323 43.163 17.4923 42.7337 17.2217 42.491C16.9557 42.2437 16.5007 42.12 15.8567 42.12H15.0447C14.452 42.12 14.018 42.183 13.7427 42.309C13.4673 42.435 13.297 42.6497 13.2317 42.953C13.199 43.0697 13.1547 43.156 13.0987 43.212C13.0473 43.2633 12.9633 43.289 12.8467 43.289C12.7253 43.289 12.6297 43.2563 12.5597 43.191C12.4943 43.121 12.471 43.0277 12.4897 42.911C12.5503 42.379 12.7907 41.9917 13.2107 41.749C13.6353 41.5063 14.2467 41.385 15.0447 41.385H15.8567C16.7293 41.385 17.3663 41.588 17.7677 41.994C18.1737 42.3953 18.3767 43.0323 18.3767 43.905V47.629C18.3767 47.8763 18.2553 48 18.0127 48C17.7653 48 17.6417 47.8763 17.6417 47.629V46.936C17.1937 47.6453 16.3933 48 15.2407 48H14.4567ZM14.4567 47.265H15.2407C15.6933 47.265 16.09 47.216 16.4307 47.118C16.776 47.0153 17.0537 46.852 17.2637 46.628C17.4737 46.404 17.5997 46.1053 17.6417 45.732V44.514H14.4567C13.9387 44.514 13.5793 44.6143 13.3787 44.815C13.1827 45.011 13.0847 45.3703 13.0847 45.893C13.0847 46.411 13.1827 46.7703 13.3787 46.971C13.5793 47.167 13.9387 47.265 14.4567 47.265ZM21.2415 48C20.9942 48 20.8705 47.8763 20.8705 47.629V41.749C20.8705 41.5063 20.9942 41.385 21.2415 41.385C21.4842 41.385 21.6055 41.5063 21.6055 41.749V42.827C21.8482 42.3603 22.1982 42.0033 22.6555 41.756C23.1175 41.5087 23.6635 41.385 24.2935 41.385C24.5409 41.385 24.6645 41.5063 24.6645 41.749C24.6645 41.9963 24.5409 42.12 24.2935 42.12C23.4629 42.12 22.8189 42.309 22.3615 42.687C21.9042 43.0603 21.6522 43.5947 21.6055 44.29V47.629C21.6055 47.8763 21.4842 48 21.2415 48ZM28.8499 48C27.9912 48 27.3635 47.8017 26.9669 47.405C26.5702 47.0083 26.3719 46.383 26.3719 45.529V42.12H25.5389C25.2915 42.12 25.1679 41.9963 25.1679 41.749C25.1679 41.5063 25.2915 41.385 25.5389 41.385H26.3719V39.88C26.3719 39.6327 26.4932 39.509 26.7359 39.509C26.9832 39.509 27.1069 39.6327 27.1069 39.88V41.385H28.8639C29.1065 41.385 29.2279 41.5063 29.2279 41.749C29.2279 41.9963 29.1065 42.12 28.8639 42.12H27.1069V45.529C27.1069 46.1823 27.2329 46.635 27.4849 46.887C27.7415 47.139 28.1965 47.265 28.8499 47.265C28.9852 47.265 29.0809 47.2953 29.1369 47.356C29.1975 47.4167 29.2279 47.5077 29.2279 47.629C29.2279 47.8763 29.1019 48 28.8499 48Z" fill="white"/>
</svg>
